<svg xmlns="http://www.w3.org/2000/svg" version="1.1" xmlns:xlink="http://www.w3.org/1999/xlink" xmlns:svgjs="http://svgjs.dev/svgjs" width="2000" height="2250" viewBox="0 0 2000 2250"><g transform="matrix(1,0,0,1,0.000015624999718966137,0)"><svg viewBox="0 0 320 360" data-background-color="#0a1627" preserveAspectRatio="xMidYMid meet" height="2250" width="2000" xmlns="http://www.w3.org/2000/svg" xmlns:xlink="http://www.w3.org/1999/xlink"><g id="tight-bounds" transform="matrix(1,0,0,1,0.0000025000000505315256,0)"><svg viewBox="0 0 320 360" height="360" width="320"><g><svg></svg></g><g><svg viewBox="0 0 320 360" height="360" width="320"><g><path transform="translate(-19.44751,3.1739) scale(3.53591,3.53591)" d="M67.6 10.7c0.2 0 1.8 0.8 2.7 1.1-0.3 0.1-1-0.2-1.8-0.5 0.2 0 0.6 0.1 1 0.3-0.2-0.2-1.7-0.7-1.9-0.9M52.7 7.6c0.3-0.1 3.8 0.4 5.4 0.5 0.1-0.1-0.2-0.1-0.6-0.2 0.5-0.1 1.5 0.2 2.2 0.3-2.1 0.1-4.4-0.5-6.4-0.3-0.7 0-0.2-0.2-0.6-0.3M49.8 7.6c1.8 0 3.2 0 0.6 0.2-0.3-0.1-0.7-0.1-0.6-0.2M78.1 15.9c0.2 0 1 0.9 1.4 1.2-0.1 0.1-0.9-0.7-1.3-1 0.1 0.1 0 0-0.1-0.2M76.1 14.6c-0.8-0.7-1.1-0.7-1.2-1.1 0.7 0.4 1.2 0.8 1.2 1.1M63.2 8.3c0.1-0.1 0.3 0.1 0.8 0.2-0.6-0.1-0.5 0-0.3 0.2-0.7-0.1-0.9-0.2-0.7-0.4 0.4 0.2 0.5 0.1 0.2 0M34.8 9.5c0-0.1 0.4-0.3 0.7-0.4-0.3 0.2-0.2 0.3 0.3 0.1 0 0.1-0.6 0.3-1 0.5 0.2-0.1 0.4-0.4 0-0.2M65.2 7.3c-0.3 0.1-1.4-0.5-2.5-0.7-0.6-0.2 2.4 0.5 2.5 0.7M6.2 56.7c0.6 2.5 0.2 2.4 0 0M6.3 41.7c0.1-0.4 0.2-1.5 0.3-1.4-0.3 2.4-0.8 3.5-0.9 5.3 0.3-1.6-0.1 0.9-0.2 1.5 0.1 0.8 0.1-0.5 0.3-0.3 0.2 0.3-0.4 4.5-0.2 2.2-0.2 2.1 0 4.4 0.4 5-0.5 3.2 2 10.4 2.5 11.9 0.1 0.1 0-0.5 0.2-0.1 0.2 1.3 1.1 2.2 1.4 3.6 0.3 0.4 1.5 2.6 1.7 3.1 0.4 0.8 0.6 0.7 1 1.5 1.2 2.3 3.1 4.5 4.9 6.6 5.8 6.8 14.7 12.4 24.6 14.4 9.9 2.1 20.3 0.6 28.4-3.3 0.5-0.3 0.4-0.4 1-0.6 2.8-0.9 6.2-3.8 8.1-4.9 0.9-1 3.3-2.7 3.6-3.7 1.7-1.4 3.4-3.7 4.3-5.2 0.5-0.8 0.9-0.8 1.1-1.3-0.1 0 1.6-2.1 2.1-3.3-0.2 0-0.5 0.6-0.5 0 3.6-6.9 5.6-16.2 4.5-22.6 0.2 7.9-1.8 16.7-5.6 22.3-1.7 3.6-5.2 7.5-8.4 10.3-0.5 0.5-1 1.1-1.6 1.5-1.9 1.6-4 2.9-6.2 4.1-5.2 2.9-11 5.4-17.8 5.5 11.7-1 22.2-6.9 28-14.1-4.4 4.3-6.3 6-11.2 8.5-0.4 0.7-3.7 2.1-5.9 2.7 1.3-0.6 4-1.6 4.9-2.4-7.3 3.5-15.4 5.5-23 4.4 2.9 0 7 0.1 10.9-0.6 0.6-0.2 0.9-0.4 1.6-0.5 7.6-1.7 14.9-5.4 20.1-10.6-3 2.7-7.5 5.9-10.4 6.9 2.7-1.5 7.6-4.4 9.2-6.6-3.2 3.2-9.2 6.4-13 7.8-0.6 0.1 0.4-0.4-0.6 0-1.2 0.3-0.7 0.3-1 0.5-4.6 1.3-9.9 2.4-14.3 2-0.8-0.1-1.1-0.3-1.8-0.3-0.8-0.1-1.5-0.1-2.4-0.1-3.5-0.4-7.3-1.8-10.1-3-1.5-0.7-3-1.2-4.5-2.1-1.2-0.7-2.2-1.5-3.2-2.3-3.8-2.8-7-5.6-10-9.6-5.4-7.5-8.2-16.9-7.8-26.2 0.4-9.3 4.1-18.4 10-25.1-0.3 0.3 0.4-0.7 1-1.3 0 0.2-0.1 0.5 0.6-0.2 0.6-0.7-0.2-0.2 0.1-0.6 6.2-6.8 17-12.3 28.1-12.5 0.4-0.3 1.1-0.7 1.9-0.5 0 0.1-0.5 0.1-0.5 0.1 1.1-0.1 2.1-0.1 2.6 0.1 0.1-0.1-0.4-0.2 0-0.2 0.7 0.2 0.9 0 1.3 0.2-0.3 0-0.6 0-0.8 0.1 2.5 0 4.1 0.6 6.6 0.8-1.3-0.3-1.6-0.3-2.6-0.6 1.1 0.2 1.6 0.4 2.1 0.3-0.2 0-0.1-0.3 0.1-0.2 2 0.5 2.2 0.7 4.3 1.4 0.2-0.2-0.9-0.3-1.2-0.6 2 0.7 3.8 1.2 5 2-0.4-0.3-1.6-0.7-2.5-1.1-0.1 0.1 0.3 0.2 0.4 0.4-1-0.5-2.4-1-3.8-1.2 1.2 0.3 2 0.7 2.5 0.9-1.1-0.2-2.5-0.9-4.1-1.2 2.6 0.8 7.5 2.6 10.5 4.2-1.1-0.7-2.4-1.2-3.1-1.6 0.6 0.1 1.3 0.5 1.3 0.3 0.7 0.3 1.6 1 2.1 1.1-0.9-0.6-2.7-1.5-3.3-1.8 7.5 3.4 14.2 9.1 18.5 16.4 0.4 0.7 1 2.3 1.5 2.5-0.1-0.5-0.5-0.8-0.9-1.6 0.2 0 0.2-0.3 0-0.6-0.4-0.5 0 0.4-0.4-0.1-1.8-3.3-4-6.2-7.4-9.4 1.9 1.8 0.5 0.5 0.1-0.1 2.6 2.3 5.6 6.2 6.9 8.2-0.2-0.3-0.3-0.5-0.2-0.5 2.4 4.1 3.9 7.8 5.4 13.1 0.1 0.1 0-0.4 0.2-0.1 1 4.2 1.3 7.7 1.2 10.9 0.8-5.4-1-13.8-4.2-20.4-0.4-0.8-0.4-0.2-0.8-1.1 0-0.3-0.3-0.9-0.5-1.3-4-6.6-8.9-11.3-14.7-15 0.4 0.2 1.2 0.8 1.2 0.7-10.8-7.1-23.3-8.1-33.6-5.9-0.7 0.3-1 0.6-1.8 1 1.5-0.5 2.4-0.6 3.8-0.9 0.3-0.3-1.3 0.1-0.6-0.2 0.1 0.1 1.4-0.2 1.7-0.1 0 0.1-0.4 0.2-0.5 0.3 3.3-0.7 6.7-0.8 9.6-0.6-1.7 0.1-4.8-0.2-5.8 0.3 1-0.1 2.4-0.2 3.3-0.1-1.2 0-3.4 0.1-4.4 0.2-0.1-0.1 1.6-0.3 0.5-0.3-0.5 0.1-1.3 0.1-1.6 0.4-8.6 0.8-17 5.3-22.9 10.6-1.2 1-2.6 2.1-3.5 3.2-2.2 2.5-3.6 5-5.2 7.2 1-2.1 3.2-5.3 5.8-8 2.6-2.7 5.4-5 6.9-6.2 0 0.4 2.4-1.5 3.3-2.1-0.6 0.5 0.4-0.2 0.6-0.1 3.2-1.9 5.8-2.6 8.7-3.7-0.7 0.2-1.3 0.4-1.4 0.3 0.7-0.2 1.1-0.4 1-0.5-2.8 0.8-7.2 2.7-10.7 4.8 6.3-4.3 14.3-6.9 22.2-7 7.9-0.2 15.6 1.8 21.7 5 4.1 1.8 8 5.1 11.1 8.3 0.9 0.8 0.2-0.2 1.5 1.2-0.4-0.2-0.7-0.4-0.2 0.2 0.8 0.9-0.2-0.7 1.1 0.9-0.1 0-0.5-0.5-0.5-0.3 3.5 3.1 6.2 8.7 7.8 12.4-0.4-1.5-1.4-3.6-2.2-5.1 2.4 4.4 3.2 7 4.2 10.9 0.4 0.3-0.2-1.4 0.2-0.6 0.1 0.6 0.2 2.5 0.6 2.8-0.3-1.9-0.8-4.2-1.2-4.6 0.3 0.2-0.5-2.3-1-2.9-0.2-1.6-1.6-4.4-2.8-6.5-4.3-8.4-12-15.3-20.6-19.1 0-0.2-0.5-0.4-0.7-0.6-8.5-3.6-18.7-4.6-28.5-2.3-9.9 2.4-19.2 8.1-25.8 16.3 0.3-1 2.8-2.9 2.9-3.7-2.9 3.1-6 7.2-8.1 11.6-2.2 4.4-3.4 8.9-3.9 12.2" fill="#fe0039" fill-rule="nonzero" stroke="none" stroke-width="1" stroke-linecap="butt" stroke-linejoin="miter" stroke-miterlimit="10" stroke-dasharray="" stroke-dashoffset="0" font-family="none" font-weight="none" font-size="none" text-anchor="none" style="mix-blend-mode: normal" data-fill-palette-color="tertiary"></path></g><g transform="matrix(1,0,0,1,48,111.28480438842297)"><svg viewBox="0 0 224 137.43039122315406" height="137.43039122315406" width="224"><g><svg viewBox="0 0 224 137.43039122315406" height="137.43039122315406" width="224"><g><svg viewBox="0 0 224 137.43039122315406" height="137.43039122315406" width="224"><g transform="matrix(1,0,0,1,0,102.11329967944961)"><svg viewBox="0 0 224 35.317091543704464" height="35.317091543704464" width="224"><g id="textblocktransform"><svg viewBox="0 0 224 35.317091543704464" height="35.317091543704464" width="224" id="textblock"><g><svg viewBox="0 0 224 19.048351601393072" height="19.048351601393072" width="224"><g transform="matrix(1,0,0,1,0,0)"><svg width="224" viewBox="1.4 -35.05 468.00333333333197 39.8" height="19.048351601393072" data-palette-color="#fe0039"><path d="M22.9 4.75L22.9 4.45Q22.9 4.45 22.83 4.45 22.75 4.45 22.7 4.5L22.7 4.5 22.55 4.55Q22.4 4.55 22.4 4.45L22.4 4.45Q22.2 4.35 22.15 4.15L22.15 4.15Q20.4 3.85 19.9 3.65L19.9 3.65 18.15 3.15 17.9 3.15Q17.65 3.15 17.5 3.05L17.5 3.05Q17.05 3.05 16.75 2.95L16.75 2.95Q16.35 2.9 15.45 2.6 14.55 2.3 14.15 2.15L14.15 2.15Q13.35 1.9 11.85 1.3L11.85 1.3Q11.15 1 10.8 0.9L10.8 0.9 9.65 0.2Q9.25-0.1 9.25-0.4L9.25-0.4Q9.25-1.35 9.7-2.4L9.7-2.4Q9.85-2.75 10.13-3.25 10.4-3.75 10.65-4.4L10.65-4.4Q10.75-4.7 11.2-5.3L11.2-5.3Q12.4-7.3 12.5-7.5L12.5-7.5Q12.7-8.05 12.7-8.5L12.7-8.5Q12.7-9.25 11.9-10.05L11.9-10.05Q11.15-10.8 11.15-11.5L11.15-11.5Q10.9-11.5 10.9-11.45L10.9-11.45 10.8-11.45 10.75-11.45Q10.65-11.55 10.65-11.65L10.65-11.65Q9.05-13.65 7.4-16.5L7.4-16.5Q5.3-19.8 4-22.5L4-22.5Q3.6-23.1 3.05-24.65L3.05-24.65Q2.4-26 1.95-27.4L1.95-27.4Q1.4-28.95 1.4-29.4L1.4-29.4Q1.4-29.9 2.5-30.7L2.5-30.7Q2.95-31 3.55-31.3 4.15-31.6 4.45-31.75L4.45-31.75Q4.7-31.8 6.55-32.3L6.55-32.3 7.25-32.55Q7.45-32.7 7.7-32.7L7.7-32.7Q8-32.7 8.65-32.9L8.65-32.9Q10.1-33.2 10.35-33.3L10.35-33.3 12.15-33.7Q13.65-34.2 13.9-34.25L13.9-34.25 14-34.3 14.15-34.3 14.25-34.3Q15.3-34.3 15.65-33.8L15.65-33.8Q15.95-33.5 16.65-32.4L16.65-32.4Q16.75-32.1 17.03-31.7 17.3-31.3 17.4-31.2L17.4-31.2 17.8-30.65 18.15-30.25Q18.35-30 18.55-29.65 18.75-29.3 19-28.9L19-28.9Q20.3-26.6 21-25.65L21-25.65Q21.45-25 21.75-25L21.75-25Q21.9-25 22.25-25.55L22.25-25.55Q22.7-26.25 23.9-28.75L23.9-28.75Q24.55-30.35 25.45-32.4L25.45-32.4Q25.9-33.3 25.95-33.5L25.95-33.5Q26.15-34.4 26.4-34.65L26.4-34.65Q26.65-35.05 27.3-35.05L27.3-35.05Q28.9-35.05 31.5-34.4L31.5-34.4Q34.05-33.65 36.4-32.45L36.4-32.45Q38.8-31.15 39.65-30.05L39.65-30.05Q39.65-28.7 39-27.55L39-27.55 34.4-17.4 29.9-7.2 29.7-7.15Q29.65-7.15 29.55-7.05L29.55-7.05Q26.25-0.6 23.5 4.55L23.5 4.55Q23.4 4.75 22.9 4.75L22.9 4.75ZM52 0.05Q51.3 0.05 50.95-0.9L50.95-0.9Q50.2-2.55 50.2-6.9L50.2-6.9Q50.2-11.1 50.35-16.55L50.35-16.55Q50.4-18.3 50.4-21.95L50.4-21.95 50.25-22.15 44.7-22.15Q44.05-22.15 43.67-22.88 43.3-23.6 43.1-24.9L43.1-24.9Q42.85-26.4 42.85-29.2L42.85-29.2 42.85-29.9Q42.85-30.4 42.9-30.7L42.9-30.7 42.9-31.45 42.9-31.9Q42.9-32.2 43.2-32.43 43.5-32.65 43.9-32.75L43.9-32.75Q44.4-32.9 45.4-32.9L45.4-32.9 49.2-32.9Q50.45-32.9 51.1-32.85L51.1-32.85 52.95-32.8 70.95-32.8Q72.9-32.8 73.5-32.75L73.5-32.75Q73.75-32.7 74.2-32.65 74.65-32.6 74.85-32.45L74.85-32.45Q75.2-32.3 75.27-32.08 75.35-31.85 75.35-31.4L75.35-31.4 75.35-23.15Q75.35-22.6 74.9-22.4L74.9-22.4Q74.6-22.3 74.1-22.3L74.1-22.3 72.5-22.3 70.85-22.3Q69.7-22.3 69.1-22.4L69.1-22.4 67.6-22.4Q67.15-22.4 67.1-22.2L67.1-22.2Q67.1-22.15 67.05-22.08 67-22 67-21.9L67-21.9 67-21.15 67-19.45Q67-18.7 66.95-18.3L66.95-18.3Q66.95-16.85 66.75-11.95L66.75-11.95 66.65-10.45Q66.55-8.35 66.45-7.4L66.45-7.4 66.45-2.65Q66.45-0.95 65.75-0.5L65.75-0.5Q65.1-0.25 64.85-0.2L64.85-0.2 63.6-0.15Q61.65-0.15 60.85-0.05L60.85-0.05 55.6 0Q54.6 0.05 52 0.05L52 0.05ZM108.74 0.05L102.14 0 94.49-0.05Q93.64-0.05 93.39-1.15L93.39-1.15Q93.14-1.85 93.14-3.15L93.14-3.15Q93.14-7.5 93.04-10.9L93.04-10.9Q92.89-15.8 92.89-21.25L92.89-21.25 92.89-32.25Q92.89-32.7 93.32-33.13 93.74-33.55 94.19-33.55L94.19-33.55 99.99-33.5Q101.64-33.45 104.14-33.45L104.14-33.45Q107.89-33.45 109.99-33.5L109.99-33.5 111.84-33.55Q114.94-33.65 116.74-33.65L116.74-33.65Q119.84-33.65 122.74-32.45L122.74-32.45Q126.14-31.15 128.19-28L128.19-28Q130.64-24.2 130.64-18.65L130.64-18.65Q130.64-13.4 129.47-9.9 128.29-6.4 125.74-4.15L125.74-4.15Q123.19-1.95 119.07-0.95 114.94 0.05 108.74 0.05L108.74 0.05ZM109.14-6.65Q109.34-6.6 109.69-6.6L109.69-6.6Q110.09-6.6 110.79-6.7L110.79-6.7Q111.04-6.75 111.17-6.83 111.29-6.9 111.39-6.95L111.39-6.95Q111.99-7.65 112.54-9.9L112.54-9.9Q112.89-11.3 113.39-14.7L113.39-14.7Q113.64-17.6 113.64-19.7L113.64-19.7 113.64-20.65Q113.64-21.95 113.39-24.55L113.39-24.55Q113.04-27.15 112.39-28.2L112.39-28.2Q111.84-28.9 111.39-28.9L111.39-28.9Q110.94-28.9 110.59-28.8 110.24-28.7 110.14-28.65L110.14-28.65Q110.04-28.6 109.69-28.4L109.69-28.4 109.64-22.4Q109.64-21.6 109.54-20L109.54-20 109.49-18.8Q109.39-16.3 109.39-15.2L109.39-15.2 109.14-6.65ZM150.54 1.25Q150.14 1.25 149.44 1.15L149.44 1.15Q149.09 1.05 148.34 1.05L148.34 1.05Q146.44 1.05 143.64 0.2L143.64 0.2 143.29 0.2Q142.94 0.2 142.54 0L142.54 0Q142.44-0.1 142.29-0.18 142.14-0.25 141.94-0.4L141.94-0.4 140.89-1Q139.39-1.85 138.24-3.38 137.09-4.9 136.39-6.75L136.39-6.75Q135.04-10.15 135.04-13.7L135.04-13.7Q135.04-17.65 136.64-21.3L136.64-21.3Q138.34-25.15 141.19-27.4L141.19-27.4Q144.34-29.9 148.19-29.9L148.19-29.9Q149.39-29.9 150.04-29.8L150.04-29.8Q150.04-29.9 150.19-29.9L150.19-29.9 150.34-29.9Q153.84-29.9 156.59-29.65L156.59-29.65Q158.94-29.3 160.94-28.2L160.94-28.2Q164.94-25.55 166.69-22.4L166.69-22.4Q168.54-18.9 168.54-14.15L168.54-14.15Q168.54-9.4 166.29-5.25L166.29-5.25 165.79-4.45Q165.59-4.15 165.54-4.15L165.54-4.15 165.39-3.9 165.04-3.7Q162.89-0.5 158.54 0.65L158.54 0.65Q155.64 1.25 150.54 1.25L150.54 1.25ZM151.39-2.5Q151.84-2.5 152.09-3.05L152.09-3.05Q152.69-3.95 153.09-6.55L153.09-6.55Q153.14-7 153.34-8.55 153.54-10.1 153.59-11.45L153.59-11.45Q153.79-14.85 153.79-15.65L153.79-15.65 153.79-16.8 153.79-17.2Q153.79-19 153.64-20.3L153.64-20.3Q153.49-22.35 153.04-23.55L153.04-23.55Q152.59-24.15 152.34-24.15L152.34-24.15Q151.84-24.15 151.39-23.4L151.39-23.4Q150.94-22.65 150.69-20.65L150.69-20.65 149.64-12.65 149.64-11.65 149.64-11Q149.79-8.9 149.79-8.25L149.79-8.25 149.89-7.05 150.04-5.45Q150.04-5.05 150.14-4.75L150.14-4.75 150.69-2.9Q150.74-2.7 150.97-2.6 151.19-2.5 151.39-2.5L151.39-2.5ZM187.19 0Q185.64 0 184.79-0.15L184.79-0.15Q183.59-0.25 182.89-0.25L182.89-0.25Q182.49-0.25 181.79-0.15L181.79-0.15Q181.44-0.05 180.64-0.05L180.64-0.05Q180.44-0.05 180.26-0.1 180.09-0.15 179.94-0.15L179.94-0.15Q179.59-0.3 179.29-0.3L179.29-0.3 178.84-0.25Q178.39-0.3 178.39-0.75L178.39-0.75 175.54-14Q174.29-19.7 173.44-24.4L173.44-24.4Q173.14-24.85 173.09-25.55L173.09-25.55Q173.04-25.8 173.04-26.3L173.04-26.3 173.04-27Q173.04-27.6 173.24-27.95 173.44-28.3 173.79-28.3L173.79-28.3 174.34-28.3 175.29-28.3Q175.64-28.25 176.39-28.25L176.39-28.25 178.29-28.2 178.64-28.2 180.44-28.2Q180.54-28.15 180.64-28.15 180.74-28.15 180.79-28.15L180.79-28.15 180.84-28Q181.04-28 181.09-28.15L181.09-28.15 181.44-28.2 181.59-28.2Q181.64-28.2 181.74-28.2 181.84-28.2 181.94-28.15L181.94-28.15Q182.29-28.15 182.74-28.1 183.19-28.05 183.79-28.05L183.79-28.05Q184.14-28 184.79-28L184.79-28Q185.04-27.4 185.59-24.65L185.59-24.65Q185.79-23.9 186.09-22L186.09-22 186.64-19.05 186.69-18.65Q186.74-18.55 186.84-17.8L186.84-17.8 187.04-16.75 187.19-15.7Q187.29-15.4 187.31-15.23 187.34-15.05 187.34-14.9L187.34-14.9Q187.34-14.75 187.36-14.68 187.39-14.6 187.39-14.55L187.39-14.55 187.39-14.4Q187.44-14.3 187.44-14.15L187.44-14.15Q187.54-14.15 187.54-13.9L187.54-13.9 187.59-14.15Q187.59-14.35 187.69-14.55L187.69-14.55Q187.69-14.7 187.79-14.9L187.79-14.9Q187.79-15.1 187.89-15.7L187.89-15.7 188.09-16.75Q188.19-17.45 188.29-17.8L188.29-17.8Q188.29-18.25 188.39-18.65L188.39-18.65Q188.39-18.85 188.41-18.93 188.44-19 188.44-19.05L188.44-19.05 189.04-22 189.29-23.3Q189.64-25.55 189.94-26.7L189.94-26.7Q190.04-27.15 190.39-28L190.39-28 191.19-28 192.09-28.05Q192.09-28.15 192.24-28.23 192.39-28.3 192.59-28.3L192.59-28.3 193.34-28.3 194.54-28.3 196.89-28.25 197.04-28.25Q197.04-28.3 197.09-28.3L197.09-28.3Q197.29-28.3 197.34-28.25L197.34-28.25 197.44-28.2 200.04-28.2 200.44-28.15Q200.44-28.1 200.49-28.08 200.54-28.05 200.54-28L200.54-28 200.79-28.15Q200.79-28.15 200.86-28.18 200.94-28.2 201.04-28.2L201.04-28.2 201.19-28.2Q201.24-28.2 201.34-28.18 201.44-28.15 201.64-28.15L201.64-28.15Q202.04-28 202.29-28L202.29-28Q202.69-27.2 203.09-25L203.09-25Q203.29-24.25 203.59-22.65L203.59-22.65 204.14-19.9 204.19-19.4Q204.24-19.25 204.29-18.9 204.34-18.55 204.34-18.4L204.34-18.4Q204.39-18.1 204.46-17.68 204.54-17.25 204.54-16.95L204.54-16.95 204.79-15.65Q204.79-15.15 204.89-14.65L204.89-14.65 204.94-14.15Q204.94-13.9 205.04-13.75L205.04-13.75 205.04-13.5 205.09-13.75Q205.09-13.95 205.19-14.15L205.19-14.15Q205.19-14.2 205.21-14.33 205.24-14.45 205.29-14.65L205.29-14.65 205.39-15.65 205.59-16.95Q205.79-17.95 205.79-18.4L205.79-18.4 205.94-19.4Q206.04-19.65 206.04-19.9L206.04-19.9Q206.34-21.7 206.54-22.65L206.54-22.65Q207.04-25.5 207.44-26.9L207.44-26.9Q207.54-27.25 207.69-27.58 207.84-27.9 207.89-28L207.89-28Q208.49-28 209.09-28.15L209.09-28.15Q209.54-28.15 209.79-28.2L209.79-28.2 209.94-28.2 210.04-28.15 210.04-28Q210.39-28 210.44-28.15L210.44-28.15Q210.44-28.15 210.49-28.15 210.54-28.15 210.54-28.2L210.54-28.2 212.79-28.2 213.04-28.2 214.89-28.25Q215.69-28.25 216.04-28.3L216.04-28.3 217.04-28.3 217.59-28.3Q218.29-28.3 218.29-27L218.29-27Q218.14-26.6 218.06-26.15 217.99-25.7 217.94-25.5L217.94-25.5Q217.89-25 217.89-24.4L217.89-24.4Q216.79-19.3 215.04-12.75L215.04-12.75 212.09-0.75Q211.79-0.7 211.69-0.45L211.69-0.45Q211.64-0.4 211.64-0.33 211.64-0.25 211.64-0.25L211.64-0.25 211.29-0.3Q210.99-0.3 210.79-0.15L210.79-0.15Q210.69-0.15 210.54-0.1 210.39-0.05 210.29-0.05L210.29-0.05Q209.54-0.05 209.14-0.15L209.14-0.15Q208.44-0.25 208.04-0.25L208.04-0.25Q207.84-0.15 207.69-0.15L207.69-0.15Q207.19 0 206.34 0L206.34 0 205.54 0Q204.09 0 203.19-0.15L203.19-0.15Q202.09-0.25 201.29-0.25L201.29-0.25Q201.09-0.25 200.59-0.15L200.59-0.15Q200.34-0.05 199.89-0.05L199.89-0.05Q199.74-0.05 199.61-0.1 199.49-0.15 199.34-0.15L199.34-0.15Q199.14-0.3 198.84-0.3L198.84-0.3 198.44-0.25Q198.04-0.3 198.04-0.75L198.04-0.75 195.29-14.65 192.44-0.75Q192.09-0.65 192.09-0.45L192.09-0.45Q192.04-0.4 192.04-0.33 192.04-0.25 192.04-0.25L192.04-0.25 191.64-0.3Q191.49-0.3 191.39-0.15L191.39-0.15Q191.29-0.15 191.24-0.1 191.19-0.05 191.09-0.05L191.09-0.05Q190.14-0.05 189.79-0.15L189.79-0.15Q188.89-0.25 188.34-0.25L188.34-0.25Q188.34-0.05 187.94-0.05L187.94-0.05Q187.79 0 187.19 0L187.19 0ZM228.74 0.15L228.04 0.15 227.24 0.15 226.49 0.15 226.09 0.15 224.14-0.4 224.04-0.7Q223.99-0.7 223.99-1.2L223.99-1.2Q223.99-1.85 223.94-2.25L223.94-2.25 223.89-4.15Q223.84-4.75 223.84-6.05L223.84-6.05Q223.84-7.3 223.79-7.9L223.79-7.9 223.79-9.4Q223.49-12.55 223.49-15.9L223.49-15.9 223.49-16.3 223.49-17.05Q223.49-17.65 223.54-17.9L223.54-17.9 223.54-18.3 223.54-18.65Q223.49-18.8 223.49-19.15L223.49-19.15 223.49-19.7 223.49-20 223.49-20.5 223.49-21.3Q223.49-21.9 223.54-22.15L223.54-22.15 223.54-22.65 223.59-22.9 223.59-23.55Q223.64-24.05 223.64-24.9L223.64-24.9Q223.64-25.55 223.59-26.05L223.59-26.05 223.54-27.2 223.49-27.4Q223.34-27.5 223.49-27.55L223.49-27.55Q223.69-28.35 224.74-28.7L224.74-28.7Q225.24-28.9 226.39-28.9L226.39-28.9Q227.24-28.9 230.84-29.05L230.84-29.05Q232.64-29.15 233.09-29.15L233.09-29.15Q233.84-29.2 234.89-29.2L234.89-29.2Q235.39-29.15 235.59-29.03 235.79-28.9 235.96-28.6 236.14-28.3 236.24-28.15L236.24-28.15 237.24-26.7Q237.19-26.75 238.49-24.9L238.49-24.9Q239.69-22.95 241.39-20.5L241.39-20.5Q241.64-20.1 241.99-19.6 242.34-19.1 242.74-18.45L242.74-18.45 242.74-20.2Q242.79-20.9 242.79-22.2L242.79-22.2Q242.79-23.9 242.89-26L242.89-26Q242.89-26.4 242.94-26.73 242.99-27.05 242.99-27.25L242.99-27.25Q242.99-27.75 243.04-27.75L243.04-27.75Q243.24-28.05 243.74-28.4L243.74-28.4Q244.34-28.8 244.99-28.75L244.99-28.75 247.49-28.75 247.99-28.75Q248.74-28.75 249.24-28.7L249.24-28.7 250.74-28.7Q251.24-28.65 252.24-28.65L252.24-28.65 253.34-28.65 253.84-28.65Q254.84-28.65 255.34-28.3L255.34-28.3Q255.64-28.1 255.74-27.78 255.84-27.45 255.84-26.8L255.84-26.8Q255.84-26.15 255.79-25.7L255.79-25.7Q255.74-25.2 255.74-24.5L255.74-24.5 255.74-24.15Q255.79-24 255.79-23.7L255.79-23.7 255.79-22.4 255.74-16.65 255.74-11 255.74-9.65Q255.74-4.25 255.64-2.8L255.64-2.8 255.49-1.15Q255.24 0 254.79 0.05L254.79 0.05Q254.69 0.05 254.51 0.1 254.34 0.15 254.14 0.15L254.14 0.15Q252.34 0.15 251.49 0.05L251.49 0.05 248.89 0.05 246.29 0.05 245.64 0.05Q245.49 0.1 245.24 0.1L245.24 0.1Q244.64 0.1 243.99-0.15L243.99-0.15Q243.59-0.25 243.14-0.7L243.14-0.7 238.74-6.9Q238.49-7.25 237.79-8.05L237.79-8.05 237.14-8.65Q236.89-8.9 236.74-8.9L236.74-8.9Q236.59-8.9 236.49-8.78 236.39-8.65 236.39-8.55L236.39-8.55 236.39-7.7Q236.34-7.3 236.34-6.45L236.34-6.45 236.34-5Q236.29-4.45 236.29-3.5L236.29-3.5 236.29-2.3 236.29-1.55Q236.24-1.45 236.24-1.25L236.24-1.25Q236.24-1.2 236.09-0.45L236.09-0.45Q235.99-0.25 235.94-0.2 235.89-0.15 235.59-0.15L235.59-0.15Q235.49-0.2 235.41-0.2 235.34-0.2 235.29-0.2L235.29-0.2Q231.34 0.15 228.74 0.15L228.74 0.15ZM276.13 0.3L275.43 0.25 274.78 0.15 273.98 0.15Q273.23 0.05 271.38-0.05L271.38-0.05Q270.98-0.05 270.63-0.1 270.28-0.15 269.98-0.15L269.98-0.15 268.88-0.15 268.38-0.2Q266.78-0.2 266.03-0.15L266.03-0.15Q265.28-0.05 263.68-0.05L263.68-0.05 262.68-0.05 261.78 0 261.63-0.2 261.63-0.75 261.63-2 261.63-3.3 261.63-4.15 261.63-7.55Q261.63-8.75 261.53-9.3L261.53-9.3 261.53-10.5 261.73-12.65Q261.88-14.65 261.88-18.4L261.88-18.4Q261.98-24.45 262.63-27.15L262.63-27.15Q262.98-28.6 263.78-29L263.78-29 269.63-28.95Q270.38-28.9 271.78-28.9L271.78-28.9 274.18-28.9Q274.43-28.85 275.11-28.8 275.78-28.75 276.13-28.55L276.13-28.55Q276.43-28.3 276.56-27.88 276.68-27.45 276.68-26.65L276.68-26.65 276.63-26.25 276.63-25.65Q276.48-25.3 276.48-24.95L276.48-24.95Q276.38-24.55 276.43-24.15L276.43-24.15 276.43-23.4Q276.48-23.15 276.48-22.7L276.48-22.7 276.53-22.3 276.53-21.15 276.58-19.55Q276.63-19.05 276.63-18.15L276.63-18.15Q276.73-17.45 276.88-17.2L276.88-17.2Q276.88-16.85 276.83-16.45 276.78-16.05 276.78-15.65L276.78-15.65Q276.73-15.05 276.73-13.85L276.73-13.85Q276.73-12.7 276.78-12.15L276.78-12.15Q276.78-11.35 277.03-10.5L277.03-10.5Q277.53-10.3 278.18-10.3L278.18-10.3Q279.83-10.3 281.61-10.35 283.38-10.4 284.78-10.65L284.78-10.65Q285.08-10.6 285.36-10.25 285.63-9.9 285.63-9.65L285.63-9.65 285.28-1.05Q285.18-0.75 284.88-0.65L284.88-0.65Q284.03-0.25 282.53-0.15L282.53-0.15Q280.53 0.15 279.88 0.15L279.88 0.15 279.03 0.15Q278.03 0.15 277.53 0.2L277.53 0.2Q276.53 0.3 276.13 0.3L276.13 0.3ZM304.63 1.25Q304.23 1.25 303.53 1.15L303.53 1.15Q303.18 1.05 302.43 1.05L302.43 1.05Q300.53 1.05 297.73 0.2L297.73 0.2 297.38 0.2Q297.03 0.2 296.63 0L296.63 0Q296.53-0.1 296.38-0.18 296.23-0.25 296.03-0.4L296.03-0.4 294.98-1Q293.48-1.85 292.33-3.38 291.18-4.9 290.48-6.75L290.48-6.75Q289.13-10.15 289.13-13.7L289.13-13.7Q289.13-17.65 290.73-21.3L290.73-21.3Q292.43-25.15 295.28-27.4L295.28-27.4Q298.43-29.9 302.28-29.9L302.28-29.9Q303.48-29.9 304.13-29.8L304.13-29.8Q304.13-29.9 304.28-29.9L304.28-29.9 304.43-29.9Q307.93-29.9 310.68-29.65L310.68-29.65Q313.03-29.3 315.03-28.2L315.03-28.2Q319.03-25.55 320.78-22.4L320.78-22.4Q322.63-18.9 322.63-14.15L322.63-14.15Q322.63-9.4 320.38-5.25L320.38-5.25 319.88-4.45Q319.68-4.15 319.63-4.15L319.63-4.15 319.48-3.9 319.13-3.7Q316.98-0.5 312.63 0.65L312.63 0.65Q309.73 1.25 304.63 1.25L304.63 1.25ZM305.48-2.5Q305.93-2.5 306.18-3.05L306.18-3.05Q306.78-3.95 307.18-6.55L307.18-6.55Q307.23-7 307.43-8.55 307.63-10.1 307.68-11.45L307.68-11.45Q307.88-14.85 307.88-15.65L307.88-15.65 307.88-16.8 307.88-17.2Q307.88-19 307.73-20.3L307.73-20.3Q307.58-22.35 307.13-23.55L307.13-23.55Q306.68-24.15 306.43-24.15L306.43-24.15Q305.93-24.15 305.48-23.4L305.48-23.4Q305.03-22.65 304.78-20.65L304.78-20.65 303.73-12.65 303.73-11.65 303.73-11Q303.88-8.9 303.88-8.25L303.88-8.25 303.98-7.05 304.13-5.45Q304.13-5.05 304.23-4.75L304.23-4.75 304.78-2.9Q304.83-2.7 305.06-2.6 305.28-2.5 305.48-2.5L305.48-2.5ZM328.13 0.05Q327.18 0.05 327.38-1.65L327.38-1.65Q327.38-2.25 327.63-3L327.63-3Q327.63-3.35 327.68-3.58 327.73-3.8 327.73-3.95L327.73-3.95Q328.88-9.4 330.28-14.7L330.28-14.7 333.68-28Q333.68-28.1 333.83-28.25 333.98-28.4 334.13-28.5L334.13-28.5 334.48-28.5Q335.08-28.5 335.43-28.65L335.43-28.65Q335.73-28.7 336.48-28.7L336.48-28.7Q337.68-28.7 338.28-28.65L338.28-28.65Q339.18-28.5 340.13-28.5L340.13-28.5 342.73-28.55Q343.13-28.65 343.68-28.65L343.68-28.65 345.88-28.75 347.53-28.75Q348.48-28.75 349.38-28.7L349.38-28.7 350.78-28.7Q351.28-28.65 352.23-28.65L352.23-28.65 354.13-28.65Q354.28-28.65 354.43-28.6 354.58-28.55 354.68-28.5L354.68-28.5Q354.88-28.4 355.18-28.4L355.18-28.4 355.63-28.4Q355.98-28.15 355.98-27.9L355.98-27.9 359.53-14.7Q361.18-8.35 362.13-3.95L362.13-3.95Q362.13-3.7 362.28-3L362.28-3Q362.48-2 362.48-1.4L362.48-1.4Q362.48-1.05 362.38-0.45L362.38-0.45Q362.13 0.05 361.68 0.05L361.68 0.05 361.13 0.05Q360.48 0.05 360.13 0L360.13 0 359.03 0 357.98 0 357.13 0Q356.78 0 356.73-0.05L356.73-0.05 353.98-0.05 353.93-0.15Q353.83-0.25 353.63-0.25L353.63-0.25 353.48-0.15Q353.48-0.05 353.38-0.05L353.38-0.05 353.23-0.05 352.88-0.05Q352.63-0.15 351.98-0.15L351.98-0.15Q350.78-0.25 349.98-0.25L349.98-0.25Q349.43-1.4 348.68-5.3L348.68-5.3Q347.63-5.15 346.28-5.15L346.28-5.15 344.98-5.15 343.73-5.15Q343.53-4.4 343.48-3.9L343.48-3.9Q343.43-3.65 343.08-2.2 342.73-0.75 342.43-0.25L342.43-0.25 342.13-0.15Q341.98-0.1 341.88-0.08 341.78-0.05 341.78-0.05L341.78-0.05 341.68-0.05Q341.38-0.05 341.28-0.15L341.28-0.15Q341.08-0.25 341.03-0.25L341.03-0.25 339.13-0.15 337.73-0.15Q337.48-0.1 337.33-0.08 337.18-0.05 337.13-0.05L337.13-0.05 333.13-0.05 332.73-0.05Q332.28 0 330.88 0L330.88 0 329.68 0Q329.38 0.05 328.73 0.05L328.73 0.05 328.13 0.05ZM348.23-10.65Q347.93-12.35 347.88-12.65L347.88-12.65 347.48-15.05Q347.38-15.75 347.28-16.32 347.18-16.9 347.13-17.4L347.13-17.4Q346.98-18 346.9-18.53 346.83-19.05 346.73-19.5L346.73-19.5Q346.68-19.8 346.63-20.28 346.58-20.75 346.48-20.95L346.48-20.95 346.38-21.55Q346.38-21.75 346.28-21.9L346.28-21.9 346.23-22.2Q346.13-21.9 346.13-21.9L346.13-21.9 346.13-21.7 346.13-21.55Q346.13-21.5 346.08-21.38 346.03-21.25 345.98-20.95L345.98-20.95Q345.93-20.7 345.88-20.33 345.83-19.95 345.73-19.5L345.73-19.5 345.38-17.45 344.98-15.15 344.83-14.05Q344.73-13.65 344.63-12.75L344.63-12.75Q344.18-10.5 344.23-10.7L344.23-10.7 346.43-10.7Q346.48-10.75 346.58-10.83 346.68-10.9 346.73-10.9L346.73-10.9 346.88-10.9Q347.13-10.9 347.3-10.85 347.48-10.8 347.63-10.75L347.63-10.75Q347.93-10.65 348.23-10.65L348.23-10.65ZM375.93 0Q374.03-0.05 369.38-0.05L369.38-0.05Q368.68-0.05 368.43-0.95L368.43-0.95Q368.28-1.45 368.28-2.7L368.28-2.7Q368.28-4.95 368.18-6.65L368.18-6.65Q368.18-8.2 368.08-12.3L368.08-12.3 368.03-18.3 368.03-27.75Q368.03-28.1 368.4-28.5 368.78-28.9 369.13-28.9L369.13-28.9 372.03-28.85Q372.73-28.8 374.08-28.8L374.08-28.8Q375.53-28.75 377.68-28.75L377.68-28.75Q380.88-28.75 382.68-28.8L382.68-28.8Q384.43-28.9 388.53-28.9L388.53-28.9Q391.33-28.9 393.68-27.9L393.68-27.9Q396.63-26.65 398.38-24L398.38-24Q400.38-20.9 400.38-15.95L400.38-15.95Q400.38-11.5 399.4-8.5 398.43-5.5 396.28-3.65L396.28-3.65Q394.08-1.75 390.5-0.88 386.93 0 381.58 0L381.58 0 375.93 0ZM381.93-5.65Q383.03-5.65 383.38-5.75L383.38-5.75Q383.73-5.85 383.88-6L383.88-6Q384.63-6.75 385.28-10.45L385.28-10.45Q385.83-13.9 385.83-16.9L385.83-16.9 385.83-17.7Q385.83-19.45 385.58-21.05L385.58-21.05Q385.38-23 384.78-24.25L384.78-24.25Q384.43-24.8 383.88-24.8L383.88-24.8Q383.43-24.8 382.78-24.55L382.78-24.55 382.43-24.4Q382.43-23.25 382.33-19.25L382.33-19.25 382.28-16.15Q382.28-15.15 382.23-14.6L382.23-14.6 382.18-13.05 381.93-5.65ZM407.47-0.2Q407.37-0.2 407.32-0.4L407.32-0.4Q406.97-0.85 406.82-1.5L406.82-1.5Q406.67-1.75 406.57-2.15L406.57-2.15Q406.12-3.05 405.92-4.65L405.92-4.65Q405.72-6.95 405.72-8.3L405.72-8.3Q405.67-8.9 405.67-9.95L405.67-9.95 405.67-11.15Q405.67-12.65 405.62-13.5L405.62-13.5Q405.57-14.4 405.57-17.05L405.57-17.05Q405.57-24.15 405.87-28L405.87-28Q405.87-28.6 407.57-28.9L407.57-28.9 409.07-28.9 410.32-28.9Q413.17-28.9 414.57-28.8L414.57-28.8Q416.67-28.65 418.82-28.65L418.82-28.65Q419.32-28.65 419.57-28.7L419.57-28.7 420.32-28.7 420.57-28.5Q422.22-28.85 423.97-28.95 425.72-29.05 428.22-29.05L428.22-29.05Q428.32-29.05 428.47-28.9L428.47-28.9 430.07-28.9Q430.47-28.9 430.7-28.45 430.92-28 431.07-27.15L431.07-27.15Q431.27-26.5 431.37-25.55L431.37-25.55Q431.57-24.3 431.72-23.9L431.72-23.9Q431.72-22.5 431.22-22.5L431.22-22.5Q431.17-22.5 431.07-22.65L431.07-22.65 430.87-22.7Q430.62-22.75 430.32-22.65L430.32-22.65Q430.02-22.5 429.67-22.5L429.67-22.5Q429.37-22.5 429.17-22.65L429.17-22.65Q429.07-22.7 428.72-22.7L428.72-22.7Q428.27-22.7 427.67-22.55L427.67-22.55Q427.47-22.5 426.9-22.4 426.32-22.3 425.57-22.3L425.57-22.3Q423.42-22.3 422.47-22.2L422.47-22.2Q421.92-22.15 421.42-21.9L421.42-21.9 421.42-22Q421.22-22 421.07-21.5L421.07-21.5Q420.72-20.65 420.62-19.15L420.62-19.15Q420.57-18.7 420.57-18.15L420.57-18.15Q420.57-17.6 420.75-17.4 420.92-17.2 421.32-17.2L421.32-17.2Q421.62-17.2 421.82-17.4L421.82-17.4Q421.92-17.4 422.07-17.35 422.22-17.3 422.32-17.2L422.32-17.2 426.57-17.2Q426.62-17.3 426.72-17.35 426.82-17.4 426.92-17.4L426.92-17.4Q427.42-17.4 427.67-17.25L427.67-17.25Q427.97-17.1 428.87-16.95L428.87-16.95Q429.37-16.95 429.57-16.65L429.57-16.65Q429.82-16.3 429.82-16L429.82-16 430.87-12.7Q431.02-11.9 429.37-11.65L429.37-11.65Q428.42-11.45 425.72-11.45L425.72-11.45 423.57-11.45 422.07-11.45Q421.37-11.45 421.02-11.38 420.67-11.3 420.57-11L420.57-11Q420.37-10.75 420.37-10.2L420.37-10.2 420.37-10Q420.37-9.75 420.42-9.65L420.42-9.65 420.37-8.55Q420.32-8.2 420.32-7.5L420.32-7.5 420.32-7 420.32-6.55 420.32-6.25Q422.57-6.25 424.92-6.4L424.92-6.4Q427.22-6.55 429.47-6.55L429.47-6.55Q429.62-6.55 429.72-6.33 429.82-6.1 429.82-5.8L429.82-5.8Q429.92-5.5 429.92-5.15L429.92-5.15Q430.02-4.4 430.22-3.75L430.22-3.75 430.57-2.3 430.57-1.3 430.57-1.15 430.57-0.75 430.17-0.4 429.82-0.4 429.67-0.4Q429.12-0.4 428.97-0.45L428.97-0.45Q428.82-0.55 428.62-0.55L428.62-0.55Q428.52-0.5 428.32-0.4 428.12-0.3 427.97-0.2L427.97-0.2 427.97-0.45 427.37-0.4 426.62-0.4Q426.42-0.4 426.32-0.5L426.32-0.5 425.92-0.55Q424.07-0.55 423.32-0.2L423.32-0.2 407.47-0.2ZM460.32 0.55Q458.12-1.6 456.57-3.8L456.57-3.8Q455.47-5.25 453.17-8.95L453.17-8.95 452.32-10.3Q452.27-10.35 452.25-10.38 452.22-10.4 452.22-10.4L452.22-10.4 451.97-10.4 451.77-10.3Q451.72-9.65 451.72-6.8L451.72-6.8Q451.72-4.95 451.52-2.45L451.52-2.45 451.47-0.95Q451.27-0.4 451.22-0.4L451.22-0.4 450.87-0.4 450.72-0.4Q445.22 0 442.72 0L442.72 0 441.97 0 441.02 0Q440.47 0 440.22-0.05L440.22-0.05 439.87-0.05 438.32-0.55 438.22-0.9Q438.12-0.9 438.1-1.1 438.07-1.3 438.07-1.4L438.07-1.4Q437.92-3.5 437.82-4.45L437.82-4.45Q437.62-7.15 437.57-8.4L437.57-8.4Q437.47-9.6 437.47-9.95L437.47-9.95 437.22-12.7 437.17-14.2Q437.12-14.65 437.12-15.45L437.12-15.45 437.12-15.9Q437.22-16.15 437.22-16.7L437.22-16.7 437.22-17.55Q437.27-17.75 437.27-18L437.27-18 437.22-18.4 437.22-18.9Q437.22-19.25 437.12-19.45L437.12-19.45 437.12-19.75 437.17-21Q437.22-21.35 437.22-22.05L437.22-22.05Q437.32-23.55 437.32-24.9L437.32-24.9 437.32-25.4Q437.27-25.55 437.27-26.05L437.27-26.05 437.27-26.75 437.27-27.25Q437.12-27.4 437.12-27.55L437.12-27.55Q437.12-28.25 438.37-28.55L438.37-28.55Q439.02-28.75 440.22-28.75L440.22-28.75Q451.92-28.75 457.72-27.95L457.72-27.95Q463.42-27.15 465.72-25.2L465.72-25.2Q466.72-24.25 467.15-22.98 467.57-21.7 467.57-19.95L467.57-19.95Q467.57-17.15 465.97-15.25L465.97-15.25Q464.92-14.2 463.52-13.5L463.52-13.5Q463.82-12.75 465.27-10.5L465.27-10.5Q465.57-10.15 465.85-9.75 466.12-9.35 466.52-8.9L466.52-8.9Q467.47-7.6 468.72-6.05L468.72-6.05Q468.77-5.85 469.12-5.2L469.12-5.2Q469.37-5.1 469.4-4.98 469.42-4.85 469.32-4.65L469.32-4.65Q468.92-4.05 466.97-2.9L466.97-2.9Q466.72-2.65 466.37-2.4L466.37-2.4Q465.37-1.6 463.62-0.75L463.62-0.75Q462.02 0.1 460.87 0.45L460.87 0.45Q460.42 0.7 460.32 0.55L460.32 0.55ZM451.22-17.05Q451.87-17.05 452.97-17.3L452.97-17.3Q454.02-17.6 454.47-17.9L454.47-17.9Q455.22-18.35 455.77-18.9L455.77-18.9Q456.32-19.55 456.32-20.4L456.32-20.4Q456.32-21.8 455.47-22.65L455.47-22.65Q454.72-23.25 453.62-23.25L453.62-23.25 451.47-23.25Q451.47-22.6 451.37-21.2L451.37-21.2 451.32-20.15Q451.22-19.15 451.22-17.05L451.22-17.05Z" opacity="1" transform="matrix(1,0,0,1,0,0)" fill="#fe0039" class="wordmark-text-0" data-fill-palette-color="primary" id="text-0"></path></svg></g></svg></g><g transform="matrix(1,0,0,1,0,23.545210254043543)"><svg viewBox="0 0 224 11.771881289660916" height="11.771881289660916" width="224"><g transform="matrix(1,0,0,1,0,0)"><svg width="224" viewBox="0 -38.13 744.23 39.11" height="11.771881289660916" data-palette-color="#c1c1c1"><path d="M33.98-37.84L33.98-37.84Q32.03-28.32 29.96-18.99 27.88-9.67 25.68-0.24L25.68-0.24 10.06 0Q8.84-5.27 7.59-10.52 6.35-15.77 4.79-21L4.79-21Q3.66-24.95 2.47-28.81 1.27-32.67 0-36.57L0-36.57Q1.71-36.38 3.44-36.23 5.18-36.08 6.88-36.08L6.88-36.08Q7.28-36.08 7.62-36.08 7.96-36.08 8.35-36.18L8.35-36.18Q10.3-30.03 12.4-24.1 14.5-18.16 16.7-12.11L16.7-12.11Q18.16-15.63 19.56-19.17 20.95-22.71 22.36-26.27L22.36-26.27Q22.46-26.51 22.8-27.49 23.14-28.47 23.61-29.76 24.07-31.05 24.58-32.5 25.1-33.94 25.51-35.16 25.93-36.38 26.2-37.18 26.46-37.99 26.46-37.99L26.46-37.99Q27-37.89 27.51-37.89 28.03-37.89 28.56-37.89L28.56-37.89Q29.98-37.84 31.3-37.84 32.62-37.84 33.98-37.84ZM73.59-32.67L73.59-32.67Q73.59-31.69 73.18-30.83 72.76-29.98 72.05-29.35 71.34-28.71 70.47-28.34 69.59-27.98 68.71-27.98L68.71-27.98Q67.73-27.98 66.88-28.42 66.02-28.86 65.39-29.54 64.75-30.22 64.41-31.13 64.07-32.03 64.07-32.96L64.07-32.96Q64.07-33.89 64.44-34.69 64.8-35.5 65.41-36.08 66.02-36.67 66.83-37.01 67.63-37.35 68.56-37.35L68.56-37.35Q69.49-37.35 70.39-36.99 71.3-36.62 72-35.96 72.71-35.3 73.15-34.45 73.59-33.59 73.59-32.67ZM75.59-24.37L75.59-24.37Q75.35-21.78 75.2-19.24 75.06-16.7 74.91-14.16L74.91-14.16Q74.71-11.18 74.25-8.25 73.79-5.32 73.2-2.39L73.2-2.39 65.73-1.61Q65.73-3.17 65.75-4.69 65.78-6.2 65.78-7.76L65.78-7.76Q65.78-11.77 65.63-15.77 65.49-19.78 65.34-23.78L65.34-23.78Q67.93-23.88 70.44-24.07 72.96-24.27 75.59-24.37ZM142.64-27.15L142.64-27.15Q142.64-25.1 142.64-23.1 142.64-21.09 142.54-19.04L142.54-19.04Q142.45-14.55 142.15-10.13 141.86-5.71 141.52-1.27L141.52-1.27Q137.07-0.98 132.73-0.78 128.38-0.59 123.94-0.59L123.94-0.59Q123.35-0.59 122.08-0.61 120.81-0.63 119.37-0.68 117.93-0.73 116.66-0.85 115.4-0.98 114.81-1.22L114.81-1.22Q111.05-2.59 109.22-4.91 107.39-7.23 107.39-11.33L107.39-11.33 107.39-12.11Q107.48-13.92 107.68-15.33 107.88-16.75 108.39-17.92 108.9-19.09 109.8-20.09 110.71-21.09 112.27-22.12L112.27-22.12Q113.34-22.85 114.81-23.34 116.27-23.83 117.86-24.17 119.45-24.51 120.99-24.66 122.52-24.8 123.79-24.8L123.79-24.8Q126.14-24.8 128.46-24.46 130.78-24.12 133.07-23.44L133.07-23.44Q132.83-26.66 132.66-29.81 132.48-32.96 132.14-36.13L132.14-36.13Q134.78-36.38 137.37-36.67 139.96-36.96 142.54-37.26L142.54-37.26Q142.59-34.72 142.62-32.2 142.64-29.69 142.64-27.15ZM135.17-12.4L135.17-12.4Q135.17-13.53 135.17-14.65 135.17-15.77 135.12-16.89L135.12-16.89Q132.05-17.04 128.97-17.04L128.97-17.04Q128.53-17.04 127.11-17.02 125.7-16.99 124.11-16.92 122.52-16.85 121.16-16.67 119.79-16.5 119.4-16.26L119.4-16.26Q118.67-15.72 118.5-14.75 118.32-13.77 118.32-12.94L118.32-12.94Q118.32-12.55 118.37-11.89 118.42-11.23 118.54-10.52 118.67-9.81 118.86-9.2 119.06-8.59 119.3-8.3L119.3-8.3Q119.45-8.15 119.81-8.06 120.18-7.96 120.62-7.91 121.06-7.86 121.47-7.86 121.89-7.86 122.13-7.86L122.13-7.86Q124.92-7.86 127.65-8.11 130.39-8.35 133.17-8.74L133.17-8.74Q133.56-8.84 134.1-8.86 134.63-8.89 135.07-9.03L135.07-9.03 135.07-9.13Q135.07-9.18 135.12-9.23L135.12-9.23Q135.22-10.01 135.19-10.79 135.17-11.57 135.17-12.4ZM209.15-18.12L209.15-18.12Q202.76-17.77 196.41-17.55 190.06-17.33 183.66-17.09L183.66-17.09Q183.62-16.89 183.62-16.7 183.62-16.5 183.62-16.31L183.62-16.31Q183.62-14.65 184.37-13.77 185.13-12.89 186.25-12.52 187.37-12.16 188.74-12.11 190.11-12.06 191.28-12.06L191.28-12.06Q194.55-12.06 197.82-12.28 201.1-12.5 204.42-12.74L204.42-12.74 204.81-4.98Q201.58-4.83 198.39-4.74 195.19-4.64 191.96-4.64L191.96-4.64Q191.28-4.64 189.45-4.66 187.62-4.69 185.54-4.81 183.47-4.93 181.66-5.13 179.86-5.32 179.27-5.66L179.27-5.66Q177.76-6.54 176.9-7.91 176.05-9.28 175.58-10.89 175.12-12.5 174.95-14.18 174.78-15.87 174.73-17.43L174.73-17.43Q174.68-17.68 174.7-17.94 174.73-18.21 174.73-18.46L174.73-18.46Q174.73-21.04 175.29-23.27 175.85-25.49 177.37-27.59L177.37-27.59Q178.39-29.05 180.39-30.03 182.39-31.01 184.74-31.57 187.08-32.13 189.43-32.35 191.77-32.57 193.48-32.57L193.48-32.57Q194.99-32.57 197.19-32.3 199.39-32.03 201.56-31.4 203.73-30.76 205.49-29.76 207.25-28.76 207.88-27.29L207.88-27.29Q207.98-27 208.1-26.29 208.22-25.59 208.37-24.68 208.52-23.78 208.64-22.75 208.76-21.73 208.86-20.8 208.96-19.87 209.03-19.14 209.1-18.41 209.15-18.12ZM186.2-21.14L202.51-21.68Q202.22-23.83 201.41-25.07 200.61-26.32 199.41-26.93 198.21-27.54 196.68-27.71 195.14-27.88 193.38-27.88L193.38-27.88Q192.79-27.88 191.92-27.86 191.04-27.83 190.16-27.71 189.28-27.59 188.5-27.34 187.72-27.1 187.28-26.66L187.28-26.66Q186.94-26.37 186.72-25.85 186.5-25.34 186.35-24.76 186.2-24.17 186.13-23.61 186.06-23.05 186.06-22.66L186.06-22.66Q186.06-21.88 186.2-21.14L186.2-21.14ZM276.74-19.34L276.74-19.34Q276.74-18.95 276.74-18.58 276.74-18.21 276.69-17.82L276.69-17.82Q276.64-17.14 276.44-15.58 276.25-14.01 275.91-12.33 275.57-10.64 275.08-9.23 274.59-7.81 274-7.42L274-7.42Q273.71-7.23 272.03-7.08 270.34-6.93 267.92-6.79 265.51-6.64 262.67-6.54 259.84-6.45 257.28-6.37 254.72-6.3 252.79-6.25 250.86-6.2 250.22-6.2L250.22-6.2Q249.93-6.2 249.22-6.2 248.51-6.2 247.73-6.23 246.95-6.25 246.27-6.3 245.59-6.35 245.29-6.45L245.29-6.45Q244.61-6.69 243.92-7.25 243.24-7.81 242.66-8.52 242.07-9.23 241.61-9.99 241.14-10.74 240.95-11.43L240.95-11.43Q240.8-11.96 240.7-13.06 240.6-14.16 240.56-15.36 240.51-16.55 240.48-17.68 240.46-18.8 240.46-19.38L240.46-19.38Q240.46-20.31 240.51-21.95 240.56-23.58 240.8-25.29 241.04-27 241.51-28.49 241.97-29.98 242.85-30.57L242.85-30.57Q243.24-30.81 244.32-31.01 245.39-31.2 246.85-31.35 248.32-31.49 249.98-31.57 251.64-31.64 253.23-31.67 254.81-31.69 256.18-31.69 257.55-31.69 258.38-31.64L258.38-31.64Q259.11-31.59 260.48-31.57 261.84-31.54 263.53-31.49 265.21-31.45 267.02-31.32 268.83-31.2 270.39-31.01 271.95-30.81 273.15-30.49 274.34-30.18 274.74-29.74L274.74-29.74Q275.37-29.05 275.76-27.69 276.15-26.32 276.37-24.78 276.59-23.24 276.66-21.75 276.74-20.26 276.74-19.34ZM266.39-18.31L266.39-18.31Q266.39-18.9 266.34-19.68 266.29-20.46 266.19-21.26 266.09-22.07 265.9-22.83 265.7-23.58 265.41-24.07L265.41-24.07Q265.02-24.71 263.9-25.05 262.77-25.39 261.43-25.56 260.09-25.73 258.79-25.78 257.5-25.83 256.86-25.83L256.86-25.83Q256.52-25.83 255.64-25.81 254.76-25.78 253.81-25.73 252.86-25.68 252.03-25.56 251.2-25.44 250.96-25.29L250.96-25.29Q250.52-25 250.27-24.39 250.03-23.78 249.91-23.05 249.78-22.31 249.76-21.61 249.74-20.9 249.74-20.46L249.74-20.46Q249.74-20.02 249.81-18.87 249.88-17.72 250-16.43 250.13-15.14 250.32-14.06 250.52-12.99 250.81-12.7L250.81-12.7Q251.15-12.3 252.1-12.06 253.06-11.82 254.15-11.65 255.25-11.47 256.28-11.4 257.3-11.33 257.74-11.33L257.74-11.33Q258.52-11.33 259.6-11.38 260.67-11.43 261.77-11.62 262.87-11.82 263.85-12.16 264.82-12.5 265.41-13.09L265.41-13.09Q265.75-13.43 265.95-14.11 266.14-14.79 266.24-15.58 266.34-16.36 266.36-17.11 266.39-17.87 266.39-18.31ZM385.98-11.67L385.98-11.67Q385.88-8.74 385.83-5.81 385.78-2.88 385.64 0.05L385.64 0.05 360.1 0.98Q359.86-2.73 359.54-6.42 359.22-10.11 358.93-13.87L358.93-13.87Q360.88-14.6 362.93-15.5 364.98-16.41 366.94-17.53 368.89-18.65 370.7-19.97 372.5-21.29 373.92-22.85L373.92-22.85Q374.65-23.68 375.21-24.49 375.77-25.29 375.77-26.42L375.77-26.42Q375.77-29.05 374.73-29.91 373.68-30.76 371.38-30.76L371.38-30.76Q370.4-30.76 369.4-30.74 368.4-30.71 367.52-30.57L367.52-30.57Q366.11-30.32 365.79-29.64 365.47-28.96 365.47-27.64L365.47-27.64Q365.47-27.25 365.5-26.81 365.52-26.37 365.57-25.93L365.57-25.93 358-24.9Q357.71-27.1 357.71-29.25L357.71-29.25Q357.71-29.79 357.78-30.81 357.86-31.84 358.07-32.91 358.29-33.98 358.64-34.91 358.98-35.84 359.56-36.18L359.56-36.18Q360.44-36.72 362.35-37.11 364.25-37.5 366.42-37.72 368.6-37.94 370.6-38.04 372.6-38.13 373.68-38.13L373.68-38.13Q375.53-38.13 377.17-38.04 378.8-37.94 380.15-37.43 381.49-36.91 382.46-35.77 383.44-34.62 383.93-32.57L383.93-32.57Q384.17-31.45 384.22-30.27 384.27-29.1 384.27-27.98L384.27-27.98Q384.27-27.54 384.25-26.81 384.22-26.07 384.17-25.29 384.12-24.51 383.98-23.83 383.83-23.14 383.64-22.71L383.64-22.71Q383.34-22.17 382.49-21.31 381.63-20.46 380.61-19.6 379.58-18.75 378.61-17.99 377.63-17.24 377.09-16.85L377.09-16.85Q376.26-16.26 375.36-15.75 374.46-15.23 373.63-14.7L373.63-14.7Q372.02-13.77 370.38-12.87 368.74-11.96 367.08-11.08L367.08-11.08Q376.51-11.23 385.98-11.67ZM499.47-0.15L499.47-0.15 492.05 0.98Q491.27-1.51 490.49-3.98 489.71-6.45 488.97-8.94L488.97-8.94 476.96-8.5 475.45-2 467.93-2Q468.61-10.3 469.34-18.51 470.08-26.71 470.76-34.96L470.76-34.96Q474.28-35.55 477.77-35.94 481.26-36.33 484.82-36.33L484.82-36.33Q489.17-36.33 493.51-36.18L493.51-36.18Q494.3-31.1 495.05-26.05 495.81-21 496.64-15.92L496.64-15.92Q497.22-11.91 497.93-8.01 498.64-4.1 499.47-0.15ZM477.89-15.33L487.26-15.58Q487.21-16.02 487.02-17.21 486.82-18.41 486.58-19.75 486.34-21.09 486.02-22.19 485.7-23.29 485.41-23.49L485.41-23.49Q485.31-23.54 484.94-23.58 484.58-23.63 484.16-23.68 483.75-23.73 483.36-23.73 482.97-23.73 482.82-23.73L482.82-23.73Q482.58-23.73 482.16-23.73 481.75-23.73 481.28-23.71 480.82-23.68 480.4-23.58 479.99-23.49 479.84-23.34L479.84-23.34Q479.74-23.29 479.6-22.71 479.45-22.12 479.23-21.26 479.01-20.41 478.79-19.43 478.57-18.46 478.38-17.58 478.18-16.7 478.06-16.06 477.94-15.43 477.89-15.33L477.89-15.33ZM564.47-2.49L564.47-2.49 556.22-2.15 555.63-7.08Q554.7-5.81 553.41-4.93 552.11-4.05 550.63-3.52 549.14-2.98 547.55-2.76 545.96-2.54 544.45-2.54L544.45-2.54Q543.28-2.54 541.54-2.73 539.81-2.93 538.03-3.3 536.25-3.66 534.73-4.25 533.22-4.83 532.53-5.62L532.53-5.62Q532-6.2 531.73-7.5 531.46-8.79 531.36-10.25 531.27-11.72 531.27-13.09 531.27-14.45 531.27-15.28L531.27-15.28Q531.27-18.95 531.56-22.51 531.85-26.07 532.39-29.59L532.39-29.59Q533.76-29.74 535.32-29.74L535.32-29.74Q536.59-29.74 537.86-29.57 539.13-29.39 540.4-29.15L540.4-29.15Q540.4-28.91 540.44-27.73 540.49-26.56 540.57-24.95 540.64-23.34 540.74-21.51 540.84-19.68 540.96-18.12 541.08-16.55 541.25-15.45 541.42-14.36 541.62-14.26L541.62-14.26Q542.35-13.82 543.23-13.77 544.11-13.72 544.94-13.72L544.94-13.72Q545.52-13.72 546.77-13.79 548.01-13.87 549.33-14.04 550.65-14.21 551.77-14.48 552.9-14.75 553.29-15.14L553.29-15.14Q553.43-15.28 553.51-16.06 553.58-16.85 553.6-17.77 553.63-18.7 553.65-19.51 553.68-20.31 553.68-20.46L553.68-20.46Q553.68-22.66 553.58-24.8 553.48-26.95 553.38-29.15L553.38-29.15 562.86-29.59Q563.15-26.17 563.39-22.78 563.64-19.38 564.03-15.97L564.03-15.97Q564.18-14.84 564.2-13.67 564.22-12.5 564.27-11.33L564.27-11.33Q564.37-9.13 564.39-6.93 564.42-4.74 564.47-2.49ZM631.27-27.15L631.27-27.15Q631.27-25.1 631.27-23.1 631.27-21.09 631.17-19.04L631.17-19.04Q631.08-14.55 630.78-10.13 630.49-5.71 630.15-1.27L630.15-1.27Q625.71-0.98 621.36-0.78 617.01-0.59 612.57-0.59L612.57-0.59Q611.99-0.59 610.72-0.61 609.45-0.63 608.01-0.68 606.57-0.73 605.3-0.85 604.03-0.98 603.44-1.22L603.44-1.22Q599.68-2.59 597.85-4.91 596.02-7.23 596.02-11.33L596.02-11.33 596.02-12.11Q596.12-13.92 596.31-15.33 596.51-16.75 597.02-17.92 597.53-19.09 598.44-20.09 599.34-21.09 600.9-22.12L600.9-22.12Q601.98-22.85 603.44-23.34 604.9-23.83 606.49-24.17 608.08-24.51 609.62-24.66 611.15-24.8 612.42-24.8L612.42-24.8Q614.77-24.8 617.09-24.46 619.41-24.12 621.7-23.44L621.7-23.44Q621.46-26.66 621.29-29.81 621.12-32.96 620.77-36.13L620.77-36.13Q623.41-36.38 626-36.67 628.59-36.96 631.17-37.26L631.17-37.26Q631.22-34.72 631.25-32.2 631.27-29.69 631.27-27.15ZM623.8-12.4L623.8-12.4Q623.8-13.53 623.8-14.65 623.8-15.77 623.75-16.89L623.75-16.89Q620.68-17.04 617.6-17.04L617.6-17.04Q617.16-17.04 615.74-17.02 614.33-16.99 612.74-16.92 611.15-16.85 609.79-16.67 608.42-16.5 608.03-16.26L608.03-16.26Q607.3-15.72 607.13-14.75 606.96-13.77 606.96-12.94L606.96-12.94Q606.96-12.55 607-11.89 607.05-11.23 607.18-10.52 607.3-9.81 607.49-9.2 607.69-8.59 607.93-8.3L607.93-8.3Q608.08-8.15 608.44-8.06 608.81-7.96 609.25-7.91 609.69-7.86 610.11-7.86 610.52-7.86 610.76-7.86L610.76-7.86Q613.55-7.86 616.28-8.11 619.02-8.35 621.8-8.74L621.8-8.74Q622.19-8.84 622.73-8.86 623.26-8.89 623.7-9.03L623.7-9.03 623.7-9.13Q623.7-9.18 623.75-9.23L623.75-9.23Q623.85-10.01 623.83-10.79 623.8-11.57 623.8-12.4ZM672.88-32.67L672.88-32.67Q672.88-31.69 672.47-30.83 672.05-29.98 671.34-29.35 670.63-28.71 669.76-28.34 668.88-27.98 668-27.98L668-27.98Q667.02-27.98 666.17-28.42 665.31-28.86 664.68-29.54 664.04-30.22 663.7-31.13 663.36-32.03 663.36-32.96L663.36-32.96Q663.36-33.89 663.73-34.69 664.09-35.5 664.7-36.08 665.31-36.67 666.12-37.01 666.92-37.35 667.85-37.35L667.85-37.35Q668.78-37.35 669.68-36.99 670.59-36.62 671.29-35.96 672-35.3 672.44-34.45 672.88-33.59 672.88-32.67ZM674.88-24.37L674.88-24.37Q674.64-21.78 674.49-19.24 674.35-16.7 674.2-14.16L674.2-14.16Q674-11.18 673.54-8.25 673.08-5.32 672.49-2.39L672.49-2.39 665.02-1.61Q665.02-3.17 665.04-4.69 665.07-6.2 665.07-7.76L665.07-7.76Q665.07-11.77 664.92-15.77 664.78-19.78 664.63-23.78L664.63-23.78Q667.22-23.88 669.73-24.07 672.25-24.27 674.88-24.37ZM744.23-19.34L744.23-19.34Q744.23-18.95 744.23-18.58 744.23-18.21 744.18-17.82L744.18-17.82Q744.13-17.14 743.93-15.58 743.74-14.01 743.4-12.33 743.05-10.64 742.57-9.23 742.08-7.81 741.49-7.42L741.49-7.42Q741.2-7.23 739.51-7.08 737.83-6.93 735.41-6.79 733-6.64 730.16-6.54 727.33-6.45 724.77-6.37 722.2-6.3 720.28-6.25 718.35-6.2 717.71-6.2L717.71-6.2Q717.42-6.2 716.71-6.2 716-6.2 715.22-6.23 714.44-6.25 713.76-6.3 713.07-6.35 712.78-6.45L712.78-6.45Q712.1-6.69 711.41-7.25 710.73-7.81 710.14-8.52 709.56-9.23 709.09-9.99 708.63-10.74 708.43-11.43L708.43-11.43Q708.29-11.96 708.19-13.06 708.09-14.16 708.04-15.36 708-16.55 707.97-17.68 707.95-18.8 707.95-19.38L707.95-19.38Q707.95-20.31 708-21.95 708.04-23.58 708.29-25.29 708.53-27 709-28.49 709.46-29.98 710.34-30.57L710.34-30.57Q710.73-30.81 711.8-31.01 712.88-31.2 714.34-31.35 715.81-31.49 717.47-31.57 719.13-31.64 720.72-31.67 722.3-31.69 723.67-31.69 725.04-31.69 725.87-31.64L725.87-31.64Q726.6-31.59 727.97-31.57 729.33-31.54 731.02-31.49 732.7-31.45 734.51-31.32 736.32-31.2 737.88-31.01 739.44-30.81 740.64-30.49 741.83-30.18 742.22-29.74L742.22-29.74Q742.86-29.05 743.25-27.69 743.64-26.32 743.86-24.78 744.08-23.24 744.15-21.75 744.23-20.26 744.23-19.34ZM733.87-18.31L733.87-18.31Q733.87-18.9 733.83-19.68 733.78-20.46 733.68-21.26 733.58-22.07 733.39-22.83 733.19-23.58 732.9-24.07L732.9-24.07Q732.51-24.71 731.38-25.05 730.26-25.39 728.92-25.56 727.58-25.73 726.28-25.78 724.99-25.83 724.35-25.83L724.35-25.83Q724.01-25.83 723.13-25.81 722.25-25.78 721.3-25.73 720.35-25.68 719.52-25.56 718.69-25.44 718.44-25.29L718.44-25.29Q718.01-25 717.76-24.39 717.52-23.78 717.39-23.05 717.27-22.31 717.25-21.61 717.22-20.9 717.22-20.46L717.22-20.46Q717.22-20.02 717.3-18.87 717.37-17.72 717.49-16.43 717.61-15.14 717.81-14.06 718.01-12.99 718.3-12.7L718.3-12.7Q718.64-12.3 719.59-12.06 720.54-11.82 721.64-11.65 722.74-11.47 723.77-11.4 724.79-11.33 725.23-11.33L725.23-11.33Q726.01-11.33 727.09-11.38 728.16-11.43 729.26-11.62 730.36-11.82 731.34-12.16 732.31-12.5 732.9-13.09L732.9-13.09Q733.24-13.43 733.43-14.11 733.63-14.79 733.73-15.58 733.83-16.36 733.85-17.11 733.87-17.87 733.87-18.31Z" opacity="1" transform="matrix(1,0,0,1,0,0)" fill="#c1c1c1" class="slogan-text-1" data-fill-palette-color="secondary" id="text-1"></path></svg></g></svg></g></svg></g></svg></g><g transform="matrix(1,0,0,1,63.191779486600446,0)"><svg viewBox="0 0 97.61644102679911 97.61644102679914" height="97.61644102679914" width="97.61644102679911"><g><svg xmlns="http://www.w3.org/2000/svg" xmlns:xlink="http://www.w3.org/1999/xlink" version="1.1" x="0" y="0" viewBox="5.916 5.916000000000004 79.07399999999998 79.07400000000001" enable-background="new 0 0 100 100" xml:space="preserve" height="97.61644102679914" width="97.61644102679911" class="icon-icon-0" data-fill-palette-color="accent" id="icon-0"><path d="M66.09 18.65l0.57-2.67c1.45 0.31 3.34 0.59 5.46 0.59 4.88 0 7.76-1.69 7.76-1.69V10.6c0 0-3.26 1.02-7.76 1.02-3.83 0-7.73-0.73-8.86-0.95l-0.18-0.04c-0.09-0.02-0.14-0.03-0.14-0.03l-1.45 6.05c-3.65-1.29-7.58-1.99-11.66-1.99-19.4 0-35.17 15.77-35.17 35.16 0 19.4 15.77 35.17 35.17 35.17 19.39 0 35.16-15.77 35.16-35.17C84.99 36.29 77.32 24.53 66.09 18.65zM63.37 31.3c5.7 4.19 9.399 10.93 9.399 18.52 0 12.66-10.289 22.95-22.939 22.95-12.66 0-22.96-10.29-22.96-22.95 0-12.65 10.3-22.95 22.96-22.95 3.11 0 6.08 0.62 8.78 1.75L55.34 42.24c-1.54-1.12-3.45-1.79-5.51-1.79-5.18 0-9.38 4.2-9.38 9.37 0 5.18 4.2 9.38 9.38 9.38 4.47 0 8.22-3.14 9.14-7.35l0.08-0.39L63.37 31.3zM49.83 81.17c-17.29 0-31.36-14.06-31.36-31.35 0-17.28 14.07-31.34 31.36-31.34 3.78 0 7.41 0.67 10.76 1.91l-1.32 5.5c-2.92-1.17-6.109-1.81-9.439-1.81-14.2 0-25.75 11.55-25.75 25.74 0 14.2 11.55 25.75 25.75 25.75 14.189 0 25.74-11.55 25.74-25.75 0-8.95-4.601-16.86-11.561-21.47l1.24-5.8c9.5 5.39 15.92 15.59 15.92 27.27C81.17 67.11 67.11 81.17 49.83 81.17z" fill="#c1c1c1" data-fill-palette-color="accent"></path><path d="M35.232 49.825h-3c0-9.7 7.892-17.592 17.593-17.592v3C41.778 35.232 35.232 41.778 35.232 49.825z" fill="#c1c1c1" data-fill-palette-color="accent"></path><path d="M8.916 49.825h-3c0-24.211 19.697-43.909 43.909-43.909v3C27.268 8.916 8.916 27.268 8.916 49.825z" fill="#c1c1c1" data-fill-palette-color="accent"></path></svg></g></svg></g><g></g></svg></g></svg></g></svg></g></svg></g><defs></defs></svg><rect width="320" height="360" fill="none" stroke="none" visibility="hidden"></rect></g></svg></g></svg>